# xmcd
#
# Track frame offsets:
#	150
#	4617
#	9140
#	29470
#	44244
#	59367
#	68921
#	82424
#	99831
#	116990
#	138441
#	147750
#	165777
#	182362
#
# Disc length: 2552 seconds
#
# Revision: 1
# Processed by: cddbd v1.5.2PL0 Copyright (c) Steve Scherf et al.
# Submitted via: audiograbber 1.81.02
#
DISCID=b409f60e
DTITLE=PANIC INSIDE - Паник Инсайд
DYEAR=2006
DGENRE=Rap
TTITLE0=Intro (Красный, Чуб)
TTITLE1=В Главной Роли
TTITLE2=Прем
TTITLE3=Тачки Телки
TTITLE4=Ещё Не Выменял
TTITLE5=Позже Бдует Видно feat. Гринч
TTITLE6=По Рецепту feat. Вентель
TTITLE7=Придумай Сюжет feat. Минор и Гар
TTITLE8=Кто Говорит... feat. Эл
TTITLE9=Навыки feat. Click
TTITLE10=Свобода
TTITLE11=Ордами Бродами feat. Напалм
TTITLE12=За Плечами
TTITLE13=Что Внутри
EXTD=
EXTT0=
EXTT1=
EXTT2=
EXTT3=
EXTT4=
EXTT5=
EXTT6=
EXTT7=
EXTT8=
EXTT9=
EXTT10=
EXTT11=
EXTT12=
EXTT13=
PLAYORDER=
